<?xml version="1.0" encoding="iso-8859-1"?>
<!-- Generator: Adobe Illustrator 19.0.0, SVG Export Plug-In . SVG Version: 6.00 Build 0)  -->
<svg version="1.1" id="Capa_1" xmlns="http://www.w3.org/2000/svg" xmlns:xlink="http://www.w3.org/1999/xlink" x="0px" y="0px"
	 viewBox="0 0 512 512" style="enable-background:new 0 0 512 512;" xml:space="preserve">
<polygon style="fill:#EEBD56;" points="499.428,280.371 250.621,136.722 201.183,165.453 201.069,341.191 376.225,442.317 
	416.454,512 465.892,483.27 465.914,475.519 499.314,456.109 "/>
<g>
	<polygon style="fill:#E5AA40;" points="449.99,309.101 499.428,280.371 499.314,456.109 449.876,484.839 	"/>
	<polygon style="fill:#E5AA40;" points="416.585,465.62 466.024,436.889 465.892,483.27 416.454,512 	"/>
</g>
<polygon style="fill:#EEBD56;" points="449.99,309.101 449.876,484.839 416.585,465.62 416.454,512 376.225,442.317 
	201.069,341.191 201.183,165.453 "/>
<polygon style="fill:#F2D07C;" points="201.183,165.453 250.621,136.722 499.428,280.371 449.99,309.101 "/>
<polygon style="fill:#58948E;" points="56.318,0 12.572,25.422 12.572,180.586 42.029,197.594 41.913,238.631 77.742,218.213 
	232.731,307.695 276.477,282.273 276.477,127.109 "/>
<polygon style="fill:#82CF95;" points="12.572,25.422 56.318,0 276.477,127.109 232.731,152.531 "/>
<polygon style="fill:#58948E;" points="232.731,152.531 276.477,127.109 276.477,282.273 232.731,307.695 "/>
<polygon style="fill:#6FB59D;" points="232.731,152.531 232.731,307.695 77.742,218.213 41.913,238.631 42.029,197.594 
	12.572,180.586 12.572,25.422 "/>
<g>
</g>
<g>
</g>
<g>
</g>
<g>
</g>
<g>
</g>
<g>
</g>
<g>
</g>
<g>
</g>
<g>
</g>
<g>
</g>
<g>
</g>
<g>
</g>
<g>
</g>
<g>
</g>
<g>
</g>
</svg>
